#N canvas 26 200 962 520 12;
#X obj 102 466 dac~;
#X obj 503 94 soundfiler;
#X obj 541 8 bng 20 250 50 0 empty empty empty 0 -10 0 12 #fcfcfc #000000 #000000;
#N canvas 575 341 450 250 (subpatch) 0;
#X array dreamloop 4.35491e+07 float 2;
#X coords 0 1 4.35491e+07 -1 200 140 1 0 0;
#X restore 358 323 graph;
#X floatatom 503 126 18 0 0 0 - - - 0;
#X obj 96 323 tabread~ dreamloop;
#X obj 105 420 *~;
#X msg 458 59 read -resize dream.wav dreamloop;
#X obj 98 290 vline~;
#X msg 99 252 \$1 \, \$2 \$3;
#X obj 107 222 pack f f f;
#X obj 52 50 bng 20 250 50 0 empty empty empty 0 -10 0 12 #fcfcfc #000000 #000000;
#X obj 136 180 r end;
#X obj 230 39 r end;
#X floatatom 188 148 5 0 0 0 - - - 0;
#X msg 501 165 range 0 \$1;
#X obj 449 197 hsl 170 20 0 4.35491e+07 0 0 empty empty empty -2 -10 0 12 #fcfcfc #000000 #000000 0 1;
#X obj 485 234 s start;
#X obj 88 170 f;
#X obj 97 54 r start;
#X obj 132 96 expr abs($f2 -$f1) / 44.1;
#X obj 556 238 hsl 170 20 0 4.35491e+07 0 0 empty empty empty -2 -10 0 12 #fcfcfc #000000 #000000 0 1;
#X obj 553 263 s end;
#X obj -159 331 tabread~ dreamloop;
#X obj -176 292 vline~;
#X msg -175 254 \$1 \, \$2 \$3;
#X obj -167 224 pack f f f;
#X obj -160 103 bng 20 250 50 0 empty empty empty 0 -10 0 12 #fcfcfc #000000 #000000;
#X obj 354 212 s end1;
#X obj -115 142 r end1;
#X obj -57 132 r end1;
#X obj -59 175 / 44.1;
#X floatatom -61 214 5 0 0 0 - - - 0;
#X obj 244 265 vsl 20 170 0 2 0 0 empty empty empty 0 -9 0 12 #fcfcfc #000000 #000000 0 1;
#X obj -73 390 *~;
#X obj 8 179 vsl 20 170 0 2 0 0 empty empty empty 0 -9 0 12 #fcfcfc #000000 #000000 0 1;
#X msg -169 192 0;
#X obj 172 -3 loadbang;
#X msg 20 10 \; pd dsp 1;
#X connect 1 0 4 0;
#X connect 2 0 7 0;
#X connect 2 0 11 0;
#X connect 2 0 27 0;
#X connect 4 0 15 0;
#X connect 4 0 28 0;
#X connect 5 0 6 0;
#X connect 6 0 0 0;
#X connect 6 0 0 1;
#X connect 7 0 1 0;
#X connect 8 0 5 0;
#X connect 9 0 8 0;
#X connect 10 0 9 0;
#X connect 11 0 18 0;
#X connect 12 0 10 1;
#X connect 13 0 20 1;
#X connect 14 0 10 2;
#X connect 15 0 16 0;
#X connect 15 0 21 0;
#X connect 16 0 17 0;
#X connect 18 0 10 0;
#X connect 19 0 18 1;
#X connect 19 0 20 0;
#X connect 20 0 14 0;
#X connect 21 0 22 0;
#X connect 23 0 34 0;
#X connect 24 0 23 0;
#X connect 25 0 24 0;
#X connect 26 0 25 0;
#X connect 27 0 36 0;
#X connect 29 0 26 1;
#X connect 30 0 31 0;
#X connect 31 0 32 0;
#X connect 31 0 26 2;
#X connect 33 0 6 1;
#X connect 34 0 0 0;
#X connect 34 0 0 1;
#X connect 35 0 34 1;
#X connect 36 0 26 0;
#X connect 37 0 2 0;
#X connect 37 0 38 0;
